# xmcd
#
# Track frame offsets: 
#        150
#        43862
#        71262
#        77300
#        107600
#        171525
#        238500
#
# Disc length: 3690 seconds
#
# Revision: 1
# Processed by: cddbd v1.5.2PL0 Copyright (c) Steve Scherf et al.
# Submitted via: ExactAudioCopyFreeDBPlugin 1.0
#
DISCID=500e6807
DTITLE=Kremer  Argerich - Beethoven VS No.5 No.9
DYEAR=1987
DGENRE=Classical
TTITLE0=Beethoven: Sonata for Piano and Violin No. 5 in F Major, op. 2
TTITLE0=4 "Spring" - 1. Allegro
TTITLE1=Beethoven: Sonata for Piano and Violin No. 5 in F Major, op. 2
TTITLE1=4 "Spring" - 2. Adagio molto espressivo
TTITLE2=Beethoven: Sonata for Piano and Violin No. 5 in F Major, op. 2
TTITLE2=4 "Spring" - 3. Scherzo. Allegro molto
TTITLE3=Beethoven: Sonata for Piano and Violin No. 5 in F Major, op. 2
TTITLE3=4 "Spring" - 4. Rond. Allegro ma non troppo
TTITLE4=Beethoven: Sonata for Piano and Violin No. 9 in A Major, op. 4
TTITLE4=7 "Kreutzer" - 1. Adagio sostenuto - Presto - Adagio - Tempo I
TTITLE5=Beethoven: Sonata for Piano and Violin No. 9 in A Major, op. 4
TTITLE5=7 "Kreutzer" - 2. Andante con Variazioni  I-IV
TTITLE6=Beethoven: Sonata for Piano and Violin No. 9 in A Major, op. 4
TTITLE6=7 "Kreutzer" - 3. Finale. Presto
EXTD=YEAR: 1987
EXTT0=
EXTT1=
EXTT2=
EXTT3=
EXTT4=
EXTT5=
EXTT6=
PLAYORDER=
